<svg width="321" height="133" viewBox="0 0 321 133" fill="none" xmlns="http://www.w3.org/2000/svg">
<path d="M0.4 56V4.8H45.2V13.248H9.36V30.016H45.2V38.464H9.36V56H0.4ZM80.5255 59.84C75.7895 59.84 72.2055 56.704 70.9255 53.504C66.9575 55.04 62.6695 54.272 59.5975 51.2C56.9735 48.576 55.9495 44.544 57.0375 40.96C57.1015 40.576 57.2295 40.256 57.3575 39.936L56.3975 39.424C53.0695 37.632 50.9575 34.112 50.9575 30.336C50.9575 26.56 53.0695 22.976 56.3975 21.184C56.7175 20.992 57.0375 20.864 57.3575 20.736C57.2295 20.352 57.1015 20.032 57.0375 19.712C55.9495 16.128 56.9095 12.096 59.5975 9.408C62.8615 6.272 67.2775 5.76 70.8615 7.104L71.2455 6.4C72.9095 3.264 76.1735 0.959999 80.2695 0.959999C84.0455 0.959999 87.2455 2.816 89.1655 6.08C89.4215 6.464 89.6135 6.848 89.8055 7.232C93.5815 5.76 98.0615 6.144 101.454 9.408C104.142 12.096 105.102 16.128 104.014 19.712C103.95 20.032 103.822 20.352 103.694 20.736C104.014 20.864 104.334 20.992 104.654 21.184C107.982 22.976 110.094 26.56 110.094 30.336C110.094 34.112 107.982 37.632 104.654 39.424L103.694 39.936C103.822 40.256 103.95 40.576 104.014 40.96C105.102 44.544 104.078 48.576 101.454 51.2C98.2535 54.4 93.9015 54.976 90.1255 53.504C89.9975 53.824 89.8055 54.144 89.6135 54.464C87.6935 57.92 84.4935 59.84 80.5255 59.84ZM59.2775 30.336C59.2775 33.792 66.2535 32.448 67.5975 35.648C68.9415 38.912 62.9895 42.88 65.4855 45.376C65.9335 45.824 66.3815 45.952 66.8935 45.952C69.0055 45.952 71.7575 43.008 74.1255 43.008C74.5095 43.008 74.8295 43.072 75.1495 43.2C78.4135 44.544 77.0055 51.584 80.5255 51.584C84.0455 51.584 82.6375 44.544 85.9015 43.2C86.2215 43.072 86.5415 43.008 86.9255 43.008C89.2935 43.008 92.0455 45.952 94.1575 45.952C94.6695 45.952 95.1175 45.824 95.5655 45.376C98.0615 42.88 92.1095 38.912 93.4535 35.648C94.7975 32.448 101.774 33.792 101.774 30.336C101.774 26.816 94.7975 28.224 93.4535 24.96C92.1095 21.76 98.0615 17.728 95.5655 15.296C95.1175 14.848 94.6695 14.656 94.1575 14.656C92.0455 14.656 89.2935 17.6 86.9255 17.6C86.5415 17.6 86.2215 17.536 85.9015 17.408C82.6375 16.064 83.4695 9.216 80.2695 9.216C76.8775 9.216 78.4135 16.064 75.1495 17.408C74.8295 17.536 74.5095 17.6 74.1255 17.6C71.7575 17.6 69.0055 14.656 66.8935 14.656C66.3815 14.656 65.9335 14.848 65.4855 15.296C62.9895 17.728 68.9415 21.76 67.5975 24.96C66.2535 28.224 59.2775 26.816 59.2775 30.336ZM120.025 56V7.552L123.673 6.784C123.801 6.72 123.929 6.72 124.057 6.656C126.617 6.08 132.569 4.672 139.097 4.224C142.937 4.032 146.393 4.16 149.401 4.672C153.305 5.376 156.633 6.72 159.129 8.704C161.049 10.24 162.521 12.096 163.545 14.336C164.569 16.576 165.081 19.2 165.081 22.08C165.081 25.152 163.865 28.288 161.433 31.36C160.473 32.64 159.257 33.856 157.913 35.072C161.497 41.664 162.521 48.768 163.353 56H154.713C154.265 52.352 153.817 49.28 152.857 45.824C152.281 43.712 151.577 41.792 150.681 40C148.505 41.216 146.137 42.24 143.833 43.008C140.249 44.224 136.729 44.928 133.721 44.928C131.993 44.928 130.393 44.736 128.985 44.352V56H120.025ZM128.985 33.28C129.177 34.688 129.689 35.136 129.945 35.328C130.649 35.904 131.993 36.224 133.721 36.224C136.985 36.224 141.145 35.072 145.113 33.088C143.705 32.064 141.977 31.168 140.121 30.464C136.665 29.184 133.145 28.8 130.905 29.44C129.881 29.824 129.177 30.272 128.985 31.616V33.28ZM128.985 20.992C130.393 20.608 131.865 20.416 133.465 20.416C134.233 20.416 134.937 20.48 135.705 20.544C138.137 20.8 140.697 21.376 143.129 22.336C146.841 23.68 150.169 25.728 152.665 28.032C153.433 27.328 154.073 26.688 154.649 25.984C155.801 24.512 156.441 23.168 156.441 22.08C156.441 20.16 156.121 17.408 153.753 15.488C151.065 13.44 146.201 12.48 139.673 12.928C135.641 13.184 131.737 13.888 128.985 14.464V20.992ZM188.571 56V13.248H170.203V4.8H215.899V13.248H197.531V56H188.571ZM212.078 56C212.846 52.224 214.702 46.912 216.686 43.52C218.67 40.128 221.166 37.184 224.046 34.624C224.622 34.176 225.134 33.792 225.646 33.344C225.71 32.064 225.902 30.656 226.094 29.184C226.862 24.64 228.206 20.224 230.126 16.064C232.046 11.84 234.542 8.32 237.486 4.8H247.662L270.702 56H260.782L241.262 13.056C239.854 15.104 238.638 17.216 237.614 19.456C236.206 22.656 235.118 25.984 234.478 29.376C236.462 28.992 238.382 29.056 240.238 29.44C243.95 30.208 247.342 32.96 248.942 36.608C250.35 39.68 250.35 43.072 248.814 45.824C247.534 48.128 245.358 49.856 242.67 50.688C240.238 51.456 237.55 51.392 235.246 50.496C231.854 49.28 228.974 46.528 227.31 42.944C226.03 44.416 224.878 46.016 223.854 47.68C222.318 50.304 221.294 53.12 220.718 56H212.078ZM234.286 37.952C234.35 38.08 234.35 38.208 234.414 38.336C235.054 40.448 236.462 42.176 238.062 42.752C239.342 43.2 241.006 42.752 241.518 41.856C241.902 41.216 241.646 40.512 241.454 40C240.878 38.784 239.662 37.76 238.51 37.504C237.742 37.376 236.334 37.248 234.286 37.952ZM277.713 56V4.8H286.673V47.552H320.849V56H277.713ZM0.4 133V81.8H45.2V90.248H9.36V98.312C11.024 98.696 12.56 99.528 13.904 100.808C15.12 102.024 17.872 106.568 18.384 107.08C18.64 107.272 18.704 107.272 18.768 107.272C18.896 107.272 18.96 107.272 19.152 107.08C19.664 106.568 22.48 102.024 23.696 100.808C25.424 99.08 27.536 98.184 29.904 98.184C34.384 98.184 36.688 101.192 38.992 104.712C39.504 105.608 40.912 107.272 40.976 107.272V115.592C38.608 115.592 36.56 114.696 34.768 112.968C33.552 111.752 30.8 107.208 30.288 106.696C30.032 106.44 29.968 106.44 29.904 106.44C29.776 106.44 29.712 106.44 29.52 106.696C29.008 107.208 26.192 111.752 24.976 112.968C23.248 114.696 21.136 115.592 18.768 115.592C16.464 115.592 14.352 114.696 12.56 112.968C11.792 112.2 10.384 110.088 9.36 108.552V124.552H45.2V133H0.4ZM52.2475 133V124.552L87.5115 90.248H54.1675V81.8H99.8635V90.248L64.5995 124.552H101.144V133H52.2475ZM97.9525 133C98.7205 129.224 100.577 123.912 102.561 120.52C104.545 117.128 107.041 114.184 109.921 111.624C110.497 111.176 111.009 110.792 111.521 110.344C111.585 109.064 111.777 107.656 111.969 106.184C112.737 101.64 114.081 97.224 116.001 93.064C117.921 88.84 120.417 85.32 123.361 81.8H133.537L156.577 133H146.657L127.137 90.056C125.729 92.104 124.513 94.216 123.489 96.456C122.081 99.656 120.993 102.984 120.353 106.376C122.337 105.992 124.257 106.056 126.113 106.44C129.825 107.208 133.217 109.96 134.817 113.608C136.225 116.68 136.225 120.072 134.689 122.824C133.409 125.128 131.233 126.856 128.545 127.688C126.113 128.456 123.425 128.392 121.121 127.496C117.729 126.28 114.849 123.528 113.185 119.944C111.905 121.416 110.753 123.016 109.729 124.68C108.193 127.304 107.169 130.12 106.593 133H97.9525ZM120.161 114.952C120.225 115.08 120.225 115.208 120.289 115.336C120.929 117.448 122.337 119.176 123.937 119.752C125.217 120.2 126.881 119.752 127.393 118.856C127.777 118.216 127.521 117.512 127.329 117C126.753 115.784 125.537 114.76 124.385 114.504C123.617 114.376 122.209 114.248 120.161 114.952Z" fill="white"/>
</svg>
