<svg width="15" height="15" viewBox="0 0 15 15" fill="none" xmlns="http://www.w3.org/2000/svg">
<g clip-path="url(#clip0_319_628)">
<path d="M7.37188 13.125H3.125C2.79348 13.125 2.47554 12.9933 2.24112 12.7589C2.0067 12.5245 1.875 12.2065 1.875 11.875V4.375C1.875 4.04348 2.0067 3.72554 2.24112 3.49112C2.47554 3.2567 2.79348 3.125 3.125 3.125H10.625C10.9565 3.125 11.2745 3.2567 11.5089 3.49112C11.7433 3.72554 11.875 4.04348 11.875 4.375V6.875" stroke="#0C9C95" stroke-width="1.25" stroke-linecap="round" stroke-linejoin="round"/>
<path d="M11.25 8.75V11.25H13.75" stroke="#0C9C95" stroke-width="1.25" stroke-linecap="round" stroke-linejoin="round"/>
<path d="M11.25 13.75C12.6307 13.75 13.75 12.6307 13.75 11.25C13.75 9.86929 12.6307 8.75 11.25 8.75C9.86929 8.75 8.75 9.86929 8.75 11.25C8.75 12.6307 9.86929 13.75 11.25 13.75Z" stroke="#0C9C95" stroke-width="1.25" stroke-linecap="round" stroke-linejoin="round"/>
<path d="M9.375 1.875V4.375" stroke="#0C9C95" stroke-width="1.25" stroke-linecap="round" stroke-linejoin="round"/>
<path d="M4.375 1.875V4.375" stroke="#0C9C95" stroke-width="1.25" stroke-linecap="round" stroke-linejoin="round"/>
<path d="M1.875 6.875H11.875" stroke="#0C9C95" stroke-width="1.25" stroke-linecap="round" stroke-linejoin="round"/>
</g>
<defs>
<clipPath id="clip0_319_628">
<rect width="15" height="15" fill="white"/>
</clipPath>
</defs>
</svg>
